<svg width="29" height="29" viewBox="0 0 29 29" fill="none" xmlns="http://www.w3.org/2000/svg">
<path fill-rule="evenodd" clip-rule="evenodd" d="M14.5 1.8125C8.99816 1.8125 4.53125 6.27941 4.53125 11.7813C4.53125 14.2988 6.03019 17.2922 7.88347 19.9547C10.5469 23.7827 13.8765 26.9392 13.8765 26.9392C14.2263 27.27 14.7737 27.27 15.1235 26.9392C15.1235 26.9392 18.4531 23.7827 21.1165 19.9547C22.9698 17.2922 24.4688 14.2988 24.4688 11.7813C24.4688 6.27941 20.0018 1.8125 14.5 1.8125ZM14.5 6.79688C11.7486 6.79688 9.51562 9.02988 9.51562 11.7813C9.51562 14.5326 11.7486 16.7656 14.5 16.7656C17.2514 16.7656 19.4844 14.5326 19.4844 11.7813C19.4844 9.02988 17.2514 6.79688 14.5 6.79688ZM14.5 8.60938C16.2509 8.60938 17.6719 10.0304 17.6719 11.7813C17.6719 13.5321 16.2509 14.9531 14.5 14.9531C12.7491 14.9531 11.3281 13.5321 11.3281 11.7813C11.3281 10.0304 12.7491 8.60938 14.5 8.60938Z" fill="#2D2B8E"/>
</svg>
