<svg width="29" height="32" viewBox="0 0 29 32" fill="none" xmlns="http://www.w3.org/2000/svg">
<g clip-path="url(#clip0_55_1234)">
<path d="M0.371094 2.726V21.0828C0.371094 22.5892 1.47689 23.8088 2.8413 23.8088H6.2219V0H2.8413C1.47689 0 0.371094 1.21963 0.371094 2.726Z" fill="#2D2B8E"/>
<path d="M25.4534 0H7.6748V23.8088H10.6772V32H11.4093H25.6269V23.7989C27.2999 23.6989 28.6293 22.1753 28.6293 20.3044V3.50494C28.6293 1.56837 27.2077 0 25.4534 0ZM11.4093 9.04269H14.5216V10.7815H11.4093V9.04269ZM11.4093 12.6486H14.5216V14.3874H11.4093V12.6486ZM11.4093 16.2535H14.5216V17.9934H11.4093V16.2535ZM24.1626 30.3838H12.1414V20.7251H24.1626V30.3838ZM19.7082 12.6486V14.3874H16.5959V12.6486H19.7082ZM16.5959 10.7815V9.04269H19.7082V10.7815H16.5959ZM19.7082 16.2535V17.9934H16.5959V16.2535H19.7082ZM24.8947 17.9934H21.7828V16.2535H24.8947V17.9934ZM24.8947 14.3874H21.7828V12.6486H24.8947V14.3874ZM24.8947 10.7815H21.7828V9.04269H24.8947V10.7815ZM24.8947 7.23919H11.4093V4.12081H24.8947V7.23919Z" fill="#2D2B8E"/>
<path d="M22.1883 22.6714H14.501V23.7485H22.1883V22.6714Z" fill="#2D2B8E"/>
<path d="M19.5038 25.4985H14.501V26.5757H19.5038V25.4985Z" fill="#2D2B8E"/>
</g>
<defs>
<clipPath id="clip0_55_1234">
<rect width="29" height="32" fill="white"/>
</clipPath>
</defs>
</svg>
