<svg width="29" height="29" viewBox="0 0 29 29" fill="none" xmlns="http://www.w3.org/2000/svg">
<path d="M0 4.02778C0 17.8195 11.1805 29 24.9722 29C25.5944 29 26.2113 28.9773 26.8223 28.9325C27.5233 28.8811 27.8737 28.8555 28.1928 28.6718C28.4571 28.5197 28.7076 28.25 28.84 27.9753C29 27.6438 29 27.2569 29 26.4834V21.9445C29 21.2939 29 20.9686 28.8929 20.6899C28.7985 20.4436 28.6447 20.2243 28.4456 20.0512C28.2202 19.8553 27.9144 19.7442 27.3032 19.5218L22.1367 17.6431C21.4254 17.3845 21.0696 17.2552 20.7323 17.2771C20.4347 17.2964 20.1484 17.3981 19.9051 17.5705C19.6293 17.7659 19.4347 18.0904 19.0453 18.7395L17.7222 20.9444C13.4529 19.011 9.99195 15.5455 8.05556 11.2778L10.2606 9.95477C10.9096 9.56538 11.2341 9.37067 11.4295 9.09482C11.6019 8.85157 11.7036 8.56526 11.7229 8.26774C11.7448 7.93032 11.6155 7.57469 11.3569 6.86341L9.47815 1.69684C9.25583 1.0855 9.14468 0.779826 8.94879 0.554383C8.77574 0.355234 8.55643 0.201631 8.31014 0.107059C8.03132 1.92059e-07 7.70607 0 7.05557 0H2.51657C1.74303 0 1.35625 1.20037e-07 1.02463 0.159903C0.749972 0.292352 0.480337 0.542961 0.328183 0.807215C0.144485 1.12628 0.118819 1.47678 0.0674893 2.17779C0.0227648 2.78861 0 3.40553 0 4.02778Z" fill="#2D2B8E"/>
</svg>
