<svg width="86" height="86" viewBox="0 0 86 86" fill="none" xmlns="http://www.w3.org/2000/svg">
<path d="M30.4834 2.12891H55.5596C78.4646 2.12891 83.8715 7.57841 83.8715 30.4834V55.5596C83.8715 78.4646 78.422 83.8715 55.517 83.8715H30.4408C7.53584 83.8715 2.12891 78.422 2.12891 55.517V30.4408C2.12891 7.57841 7.57841 2.12891 30.4834 2.12891Z" fill="#5181B8"/>
<mask id="mask0_55_1229" style="mask-type:luminance" maskUnits="userSpaceOnUse" x="2" y="2" width="82" height="82">
<path d="M30.4834 2.12891H55.5596C78.4646 2.12891 83.8715 7.57841 83.8715 30.4834V55.5596C83.8715 78.4646 78.422 83.8715 55.517 83.8715H30.4408C7.53584 83.8715 2.12891 78.422 2.12891 55.517V30.4408C2.12891 7.57841 7.57841 2.12891 30.4834 2.12891Z" fill="white"/>
</mask>
<g mask="url(#mask0_55_1229)">
<path d="M0 0H86V86H0V0Z" fill="#5181B8"/>
</g>
<path fill-rule="evenodd" clip-rule="evenodd" d="M69.0557 30.2704C69.4389 28.9932 69.0557 28.0991 67.2676 28.0991H61.3072C59.7745 28.0991 59.0933 28.908 58.7102 29.8021C58.7102 29.8021 55.6874 37.21 51.3874 41.9783C49.9824 43.3833 49.3864 43.809 48.6201 43.809C48.2369 43.809 47.6834 43.3833 47.6834 42.1061V30.2704C47.6834 28.7377 47.2577 28.0991 45.9805 28.0991H36.6141C35.6775 28.0991 35.0815 28.8229 35.0815 29.4615C35.0815 30.909 37.2102 31.2496 37.4656 35.2516V44.0219C37.4656 45.9377 37.125 46.2783 36.3587 46.2783C34.3577 46.2783 29.4191 38.8704 26.524 30.3556C25.928 28.7803 25.3745 28.0991 23.8419 28.0991H17.8815C16.1785 28.0991 15.8379 28.908 15.8379 29.8021C15.8379 31.3773 17.8389 39.211 25.2468 49.5565C30.1854 56.6239 37.125 60.4556 43.426 60.4556C47.2151 60.4556 47.6834 59.6041 47.6834 58.1566V52.7922C47.6834 51.0892 48.024 50.7486 49.2587 50.7486C50.1527 50.7486 51.6428 51.1744 55.1765 54.5803C59.2211 58.6249 59.9022 60.4556 62.1587 60.4556H68.1191C69.822 60.4556 70.6735 59.6041 70.1626 57.9437C69.6092 56.2833 67.6933 53.8565 65.1389 50.9615C63.7339 49.3011 61.6478 47.5556 61.0517 46.6615C60.1577 45.512 60.4131 45.0011 61.0517 44.0219C61.0517 43.9793 68.3319 33.7615 69.0557 30.2704Z" fill="white"/>
</svg>
