<svg width="107" height="73" viewBox="0 0 107 73" fill="none" xmlns="http://www.w3.org/2000/svg">
<g clip-path="url(#clip0_50_4468)">
<mask id="mask0_50_4468" style="mask-type:luminance" maskUnits="userSpaceOnUse" x="0" y="0" width="107" height="73">
<path d="M107 0H0V73H107V0Z" fill="white"/>
</mask>
<g mask="url(#mask0_50_4468)">
<path d="M18.8463 45.586L14.9515 39.42L5.66387 25.4153C4.65093 23.9553 3.70933 22.5519 2.85333 21.177C1.99733 19.8021 1.31253 18.3705 0.784667 16.8679C0.2568 15.3654 0 13.6927 0 11.8359C0 8.13625 0.970133 5.2446 2.9104 3.17509C4.85067 1.10557 7.76107 0.0566406 11.6416 0.0566406C14.4807 0.0566406 16.7776 0.637805 18.5181 1.78596C20.2729 2.93412 21.5569 4.52169 22.3559 6.5345C23.1548 8.5615 23.5543 10.9003 23.5543 13.5652V15.5638H15.9501V13.6786C15.9501 12.3887 15.8217 11.198 15.5935 10.1207C15.3509 9.04344 14.8944 8.17877 14.2239 7.51257C13.5533 6.84636 12.626 6.50615 11.4276 6.50615C10.1579 6.50615 9.23053 6.94558 8.63133 7.83858C8.03213 8.7316 7.73253 10.0073 7.73253 11.6799C7.73253 13.1683 7.9608 14.5291 8.4316 15.7622C8.9024 17.0097 9.5016 18.2003 10.2292 19.3484C10.9568 20.4967 11.7272 21.7015 12.5547 22.963L23.7397 40.1429L27.3064 45.586H18.8463Z" fill="#FF6699"/>
<path d="M15.023 68.9885V51.6953H21.0721V52.9569H16.6066V68.9885H15.023Z" fill="#00679D"/>
<path d="M26.6357 69.2581C25.4944 69.2581 24.6099 69.0029 23.9679 68.5068C23.3401 68.0107 22.8979 67.2736 22.6411 66.2956C22.3843 65.3175 22.2701 64.1126 22.2701 62.681V58.0175C22.2701 56.5859 22.3985 55.381 22.6411 54.4029C22.8979 53.4248 23.3401 52.6878 23.9679 52.1916C24.5956 51.6956 25.4944 51.4404 26.6357 51.4404C27.8056 51.4404 28.7044 51.6956 29.3321 52.1916C29.9599 52.6878 30.4021 53.4248 30.6589 54.3888C30.9157 55.3526 31.0299 56.5716 31.0299 58.0175V62.681C31.0299 64.1126 30.9015 65.3175 30.6589 66.2956C30.4021 67.2736 29.9599 68.0107 29.3321 68.5068C28.7044 69.0172 27.8056 69.2581 26.6357 69.2581ZM26.6357 68.0674C27.4775 68.0674 28.1052 67.8548 28.5047 67.4296C28.9041 67.0043 29.1609 66.3948 29.2751 65.5868C29.3892 64.793 29.4463 63.8434 29.4463 62.7377V57.9466C29.4463 56.8268 29.3892 55.8772 29.2751 55.0834C29.1609 54.2896 28.9041 53.6942 28.5047 53.2548C28.1052 52.8296 27.4775 52.6169 26.6357 52.6169C25.794 52.6169 25.1805 52.8296 24.7811 53.2548C24.3959 53.68 24.1391 54.2896 24.0249 55.0834C23.9108 55.8772 23.8537 56.8268 23.8537 57.9466V62.7377C23.8537 63.8291 23.9108 64.7788 24.0249 65.5868C24.1391 66.3805 24.3816 67.0043 24.7811 67.4296C25.1805 67.8548 25.794 68.0674 26.6357 68.0674Z" fill="#00679D"/>
<path d="M31.6008 72.9999V67.8829C32.0858 67.6277 32.4996 67.2592 32.8562 66.7915C33.2129 66.3237 33.5125 65.6858 33.755 64.8637C34.0118 64.0415 34.2258 62.9785 34.4113 61.6743C34.5968 60.3702 34.768 58.7402 34.9106 56.8124L35.2958 51.6953H42.1866V67.8262H43.7274V72.9999H42.4577L42.3436 68.9885H33.0132L32.8562 72.9999H31.6008ZM33.4126 67.8262H40.6316V52.9002H36.6226L36.2374 57.1242C36.0805 58.8961 35.9236 60.3986 35.7666 61.6318C35.6097 62.865 35.4528 63.8715 35.2673 64.6794C35.0818 65.4874 34.8393 66.1394 34.5397 66.6355C34.2544 67.1316 33.8692 67.5285 33.4126 67.8262Z" fill="#00679D"/>
<path d="M53.3572 69.2579C52.0589 69.2579 51.0888 68.9603 50.4611 68.3507C49.8333 67.7412 49.4339 66.9333 49.2341 65.9127C49.0487 64.892 48.9488 63.7581 48.9488 62.4965V58.4284C48.9488 56.7274 49.0772 55.3666 49.334 54.346C49.5908 53.3255 50.0473 52.5742 50.6893 52.1206C51.3313 51.667 52.2159 51.426 53.3429 51.426C54.5413 51.426 55.4544 51.667 56.0679 52.1631C56.6813 52.6592 57.0808 53.3255 57.2805 54.1617C57.4803 55.0122 57.5801 55.962 57.5801 57.0251V57.7196H56.0679V57.0251C56.0679 55.8485 55.968 54.9414 55.7825 54.3177C55.5971 53.694 55.2975 53.2546 54.898 52.9995C54.4985 52.7443 53.9707 52.6309 53.3287 52.6309C52.544 52.6309 51.9591 52.8152 51.5453 53.1838C51.1459 53.5522 50.8748 54.1476 50.7321 54.9698C50.5895 55.7919 50.5181 56.8833 50.5181 58.2582V62.7517C50.5181 64.6227 50.7036 65.9835 51.0745 66.8198C51.4455 67.6561 52.2016 68.0814 53.3429 68.0814C54.1276 68.0814 54.7125 67.9113 55.0977 67.5711C55.4829 67.2309 55.7397 66.7065 55.8681 65.9835C55.9823 65.2606 56.0536 64.3392 56.0536 63.2052V62.5533H57.5659V63.1769C57.5659 64.3392 57.4803 65.374 57.2948 66.2812C57.1093 67.2025 56.7241 67.9255 56.1249 68.4641C55.5543 68.9885 54.6269 69.2579 53.3572 69.2579Z" fill="#00679D"/>
<path d="M63.8431 69.2581C62.9158 69.2581 62.1311 69.0738 61.4606 68.7053C60.8043 68.3367 60.2907 67.6705 59.9341 66.7066C59.5774 65.7427 59.4062 64.3678 59.4062 62.5959V57.9891C59.4062 56.1748 59.5917 54.7999 59.9483 53.8643C60.305 52.9288 60.8329 52.2909 61.5034 51.9507C62.1739 51.6105 62.9586 51.4404 63.8717 51.4404C64.9559 51.4404 65.8119 51.6672 66.4254 52.135C67.0531 52.5886 67.4954 53.3256 67.7522 54.3321C68.009 55.3385 68.1374 56.6709 68.1374 58.3294V59.9594H61.0041V62.7094C61.0041 64.0843 61.1039 65.1616 61.2894 65.9412C61.4749 66.7208 61.7887 67.2736 62.2025 67.5854C62.6305 67.9115 63.1583 68.0674 63.8289 68.0674C64.2569 68.0674 64.6706 67.9965 65.0986 67.8548C65.5266 67.713 65.869 67.387 66.1543 66.8626C66.4397 66.3381 66.5823 65.5301 66.5823 64.4386V63.1488H68.1517V64.2827C68.1517 65.7569 67.8521 66.9618 67.2386 67.8689C66.6109 68.8045 65.4838 69.2581 63.8431 69.2581ZM61.0041 58.9956H66.5681V57.6489C66.5681 56.6142 66.511 55.7212 66.3969 54.9699C66.2827 54.2186 66.0402 53.6375 65.655 53.2405C65.2698 52.8296 64.6706 52.631 63.8431 52.631C63.2011 52.631 62.659 52.7729 62.231 53.028C61.803 53.2973 61.4891 53.7934 61.2894 54.5305C61.0897 55.2534 60.9898 56.3165 60.9898 57.6915V58.9956H61.0041Z" fill="#00679D"/>
<path d="M70.1352 68.9885L70.2921 51.6953H71.5191L75.7135 64.3534L79.8936 51.6953H81.1919L81.306 68.9885H79.9221L79.8651 55.7351L75.9845 67.1599H75.4709L71.6189 55.7918L71.5619 68.9885H70.1352Z" fill="#00679D"/>
<path d="M83.5885 68.9885V51.6953H85.1721V58.641H85.5288H86.556C87.7401 58.641 88.696 58.7969 89.4236 59.1088C90.1512 59.4205 90.7076 59.8175 91.0928 60.3136C91.478 60.8097 91.749 61.3767 91.8917 61.9862C92.0344 62.6099 92.1057 63.2336 92.1057 63.8715C92.1057 64.4951 92.0344 65.1047 91.8774 65.7142C91.7205 66.3237 91.4494 66.8764 91.0642 67.3585C90.679 67.8545 90.1084 68.2372 89.3665 68.535C88.6246 68.8326 87.6545 68.9885 86.4704 68.9885H83.5885ZM85.1721 67.9112H86.4704C87.6545 67.9112 88.539 67.7269 89.124 67.3442C89.7089 66.9615 90.0941 66.4654 90.2938 65.8559C90.4936 65.2464 90.5934 64.5802 90.5934 63.8715C90.5934 63.1769 90.4936 62.5107 90.3081 61.8869C90.1226 61.2633 89.7374 60.7388 89.1668 60.3277C88.5961 59.9167 87.7116 59.7183 86.5274 59.7183H86.0424H85.1721V67.9112Z" fill="#00679D"/>
<path d="M94.1602 68.9885V51.6953H95.5441V66.026L101.679 51.6953H103.006V68.9885H101.622V54.7854L95.5156 68.9885H94.1602Z" fill="#00679D"/>
<path d="M18.8465 45.586L15.5937 40.4405L26.9642 22.963C27.7774 21.7015 28.5621 20.4967 29.2897 19.3484C30.0173 18.2003 30.6165 17.0097 31.073 15.7622C31.5438 14.5149 31.7721 13.1541 31.7721 11.6799C31.7721 10.0073 31.4725 8.7316 30.8733 7.83858C30.2741 6.94558 29.3468 6.50615 28.077 6.50615C26.8786 6.50615 25.9513 6.84636 25.2808 7.51257C24.6102 8.17877 24.1537 9.05761 23.9112 10.1207C23.6686 11.198 23.5545 12.3745 23.5545 13.6786V15.5638H15.9504V13.5652C15.9504 10.9003 16.3498 8.54733 17.1488 6.5345C17.9477 4.52169 19.2317 2.93412 20.9865 1.78596C22.7413 0.637805 25.0382 0.0566406 27.863 0.0566406C31.7436 0.0566406 34.654 1.0914 36.5942 3.17509C38.5345 5.2446 39.5046 8.13625 39.5046 11.85C39.5046 13.707 39.2478 15.3795 38.72 16.8821C38.1921 18.3846 37.5073 19.8162 36.6513 21.1913C35.7953 22.5662 34.868 23.9695 33.855 25.4153L24.5674 39.42H38.3348V45.586H18.8465Z" fill="#00679D"/>
<path d="M50.5466 46.2522C47.893 46.2522 45.7102 45.6994 43.9696 44.5797C42.2291 43.474 40.9308 41.9289 40.0606 39.9586C39.1903 37.9884 38.748 35.7346 38.748 33.1832V13.2251C38.748 10.5885 39.1618 8.29224 40.0035 6.30776C40.8452 4.3233 42.1292 2.77825 43.8698 1.67262C45.596 0.552816 47.8216 0 50.5466 0C53.2715 0 55.4971 0.552816 57.2376 1.67262C58.9782 2.77825 60.2622 4.33748 61.1039 6.30776C61.9457 8.29224 62.3594 10.6027 62.3594 13.2251V33.1832C62.3594 35.7346 61.9171 38.0025 61.0469 39.9586C60.1766 41.9289 58.864 43.4598 57.1378 44.5797C55.383 45.6994 53.1859 46.2522 50.5466 46.2522ZM50.5466 39.6327C51.7022 39.6327 52.5582 39.2783 53.1146 38.5695C53.671 37.8608 54.0419 37.0103 54.2274 36.0181C54.4128 35.0116 54.5127 34.0336 54.5127 33.0697V13.3384C54.5127 12.3037 54.4271 11.2689 54.2559 10.2484C54.0847 9.22776 53.728 8.36311 53.1716 7.66854C52.6152 6.95981 51.7307 6.60543 50.5466 6.60543C49.3482 6.60543 48.4779 6.95981 47.9215 7.66854C47.3651 8.37728 46.9942 9.22776 46.8372 10.2484C46.666 11.2689 46.5804 12.2895 46.5804 13.3384V33.0697C46.5804 34.0336 46.6803 35.0116 46.8943 36.0181C47.094 37.0245 47.4792 37.8749 48.0356 38.5695C48.5778 39.2924 49.4195 39.6327 50.5466 39.6327Z" fill="#00679D"/>
<path d="M61.8315 45.586V40.1429L73.0308 22.963C73.844 21.7015 74.6287 20.4967 75.3563 19.3484C76.0839 18.2003 76.6831 17.0097 77.1396 15.7622C77.6104 14.5149 77.8387 13.1541 77.8387 11.6799C77.8387 10.0073 77.5391 8.7316 76.9399 7.83858C76.3407 6.94558 75.4133 6.50615 74.1436 6.50615C72.9452 6.50615 72.0179 6.84636 71.3473 7.51257C70.6768 8.17877 70.2203 9.05761 69.9777 10.1207C69.7352 11.198 69.6211 12.3745 69.6211 13.6786V15.5638H62.0169V13.5652C62.0169 10.9003 62.4164 8.54733 63.2153 6.5345C64.0143 4.50752 65.2983 2.93412 67.0531 1.78596C68.8079 0.637805 71.1048 0.0566406 73.9296 0.0566406C77.8101 0.0566406 80.7206 1.0914 82.6608 3.17509C84.6011 5.2446 85.5712 8.13625 85.5712 11.85C85.5712 13.707 85.3144 15.3795 84.7866 16.8821C84.2587 18.3846 83.5739 19.8162 82.7179 21.1913C81.8619 22.5662 80.9346 23.9695 79.9216 25.4153L70.6197 39.42H84.3871V45.586H61.8315Z" fill="#00679D"/>
<path d="M95.6722 45.5859V34.5297H82.1332V27.9667L93.9317 0.552734H102.934V28.4062H107V34.5154H102.948V45.5718H95.6722V45.5859ZM88.6245 28.4062H95.6722V8.84497L88.6245 28.4062Z" fill="#00679D"/>
</g>
</g>
<defs>
<clipPath id="clip0_50_4468">
<rect width="107" height="73" fill="white"/>
</clipPath>
</defs>
</svg>
